<svg xmlns="http://www.w3.org/2000/svg" xmlns:xlink="http://www.w3.org/1999/xlink" viewBox="0 0 3795.33 1469.16"><defs><style>.cls-1,.cls-10,.cls-3{fill:#fff;}.cls-1{fill-opacity:0;}.cls-2{fill:#a6a6a6;}.cls-4{fill:url(#linear-gradient);}.cls-5{fill:url(#linear-gradient-2);}.cls-6{fill:url(#linear-gradient-3);}.cls-7{fill:url(#linear-gradient-4);}.cls-8{opacity:0.2;}.cls-10,.cls-8,.cls-9{isolation:isolate;}.cls-9{opacity:0.12;}.cls-10{opacity:0.25;}</style><linearGradient id="linear-gradient" x1="778.65" y1="3407.94" x2="367.71" y2="2997.01" gradientTransform="matrix(1, 0, 0, -1, 0, 3866.07)" gradientUnits="userSpaceOnUse"><stop offset="0" stop-color="#00a0ff"/><stop offset="0.01" stop-color="#00a1ff"/><stop offset="0.26" stop-color="#00beff"/><stop offset="0.51" stop-color="#00d2ff"/><stop offset="0.76" stop-color="#00dfff"/><stop offset="1" stop-color="#00e3ff"/></linearGradient><linearGradient id="linear-gradient-2" x1="1073.33" y1="3131.45" x2="480.84" y2="3131.45" gradientTransform="matrix(1, 0, 0, -1, 0, 3866.07)" gradientUnits="userSpaceOnUse"><stop offset="0" stop-color="#ffe000"/><stop offset="0.41" stop-color="#ffbd00"/><stop offset="0.78" stop-color="orange"/><stop offset="1" stop-color="#ff9c00"/></linearGradient><linearGradient id="linear-gradient-3" x1="852.77" y1="3075.27" x2="295.51" y2="2518.01" gradientTransform="matrix(1, 0, 0, -1, 0, 3866.07)" gradientUnits="userSpaceOnUse"><stop offset="0" stop-color="#ff3a44"/><stop offset="1" stop-color="#c31162"/></linearGradient><linearGradient id="linear-gradient-4" x1="423.54" y1="3616.89" x2="672.38" y2="3368.05" gradientTransform="matrix(1, 0, 0, -1, 0, 3866.07)" gradientUnits="userSpaceOnUse"><stop offset="0" stop-color="#32a071"/><stop offset="0.07" stop-color="#2da771"/><stop offset="0.48" stop-color="#15cf74"/><stop offset="0.8" stop-color="#06e775"/><stop offset="1" stop-color="#00f076"/></linearGradient></defs><g id="Camada_2" data-name="Camada 2"><g id="Camada_1-2" data-name="Camada 1"><rect class="cls-1" width="3795.33" height="1469.16"/><rect x="244.86" y="244.86" width="3305.61" height="979.44" rx="122.43"/><path class="cls-2" d="M3428,264.45a103,103,0,0,1,102.84,102.84v734.58A103,103,0,0,1,3428,1204.72H367.29a103,103,0,0,1-102.84-102.85V367.29A103,103,0,0,1,367.29,264.45H3428m0-19.59H367.29c-67.33,0-122.43,55.1-122.43,122.43v734.58c0,67.34,55.1,122.43,122.43,122.43H3428c67.34,0,122.43-55.09,122.43-122.43V367.29c0-67.33-55.09-122.43-122.43-122.43Z"/><path class="cls-3" d="M1913.24,777.47c-57.6,0-104.54,43.79-104.54,104.14,0,60,46.94,104.14,104.54,104.14s104.53-44.18,104.53-104.14C2017.77,821.26,1970.83,777.47,1913.24,777.47Zm0,167.26c-31.56,0-58.78-26-58.78-63.12,0-37.47,27.22-63.11,58.78-63.11S1972,844.14,1972,881.61C1972,918.69,1944.79,944.73,1913.24,944.73Zm-228-167.26c-57.6,0-104.54,43.79-104.54,104.14,0,60,46.94,104.14,104.54,104.14s104.53-44.18,104.53-104.14C1789.72,821.26,1742.78,777.47,1685.19,777.47Zm0,167.26c-31.56,0-58.78-26-58.78-63.12,0-37.47,27.22-63.11,58.78-63.11S1744,844.14,1744,881.61C1744,918.69,1716.74,944.73,1685.19,944.73ZM1413.91,809.42V853.6h105.72c-3.15,24.86-11.43,43-24.06,55.63-15.38,15.38-39.45,32.34-81.66,32.34-65.09,0-116-52.46-116-117.55s50.88-117.56,116-117.56c35.11,0,60.75,13.81,79.69,31.56l31.16-31.16c-26.43-25.25-61.54-44.58-110.85-44.58-89.15,0-164.1,72.59-164.1,161.74s75,161.73,164.1,161.73c48.13,0,84.42-15.77,112.82-45.36C1555.93,911.2,1565,870.17,1565,837a144,144,0,0,0-2.37-27.62Zm1109.42,34.32c-8.68-23.27-35.11-66.27-89.15-66.27-53.65,0-98.23,42.21-98.23,104.14,0,58.39,44.18,104.14,103.36,104.14,47.73,0,75.34-29.19,86.78-46.15l-35.5-23.67c-11.84,17.36-28,28.8-51.28,28.8s-39.85-10.65-50.5-31.56l139.26-57.59Zm-142,34.72c-1.19-40.24,31.16-60.75,54.43-60.75,18.15,0,33.54,9.07,38.66,22.09Zm-113.22,101h45.76V673.33H2268.1Zm-74.95-178.7h-1.58c-10.25-12.22-30-23.27-54.83-23.27-52.07,0-99.8,45.76-99.8,104.54,0,58.38,47.73,103.74,99.8,103.74,24.85,0,44.58-11,54.83-23.66h1.58v15c0,39.84-21.3,61.14-55.62,61.14-28,0-45.37-20.12-52.47-37.08l-39.84,16.57c11.44,27.61,41.81,61.54,92.31,61.54,53.65,0,99-31.56,99-108.49v-187h-43.39Zm-52.46,144c-31.56,0-58-26.43-58-62.72,0-36.69,26.43-63.51,58-63.51,31.16,0,55.62,26.82,55.62,63.51C2196.31,918.3,2171.85,944.73,2140.69,944.73Zm597-271.4H2628.2V979.44h45.68v-116h63.8c50.65,0,100.42-36.67,100.42-95.07S2788.33,673.33,2737.68,673.33Zm1.18,147.54h-65V715.94h65c34.16,0,53.56,28.28,53.56,52.46C2792.42,792.12,2773,820.87,2738.86,820.87Zm282.36-44c-33.08,0-67.34,14.57-81.52,46.86l40.57,16.93c8.66-16.93,24.81-22.44,41.74-22.44,23.63,0,47.65,14.17,48,39.38v3.15c-8.28-4.73-26-11.82-47.66-11.82-43.71,0-88.21,24-88.21,68.92,0,41,35.84,67.34,76,67.34,30.71,0,47.65-13.78,58.28-29.93h1.58v23.63h44.1V861.58C3114.16,807.23,3073.6,776.91,3021.22,776.91Zm-5.51,167.76c-15,0-35.84-7.48-35.84-26,0-23.63,26-32.69,48.44-32.69,20.09,0,29.54,4.34,41.75,10.24C3066.51,924.59,3042.1,944.67,3015.71,944.67ZM3274.84,783.6l-52.38,132.71h-1.58L3166.54,783.6h-49.23l81.52,185.49-46.47,103.18H3200L3325.64,783.6ZM2863.3,979.44H2909V673.33H2863.3Z"/><path class="cls-4" d="M500.38,429.44c-7.12,7.53-11.33,19.23-11.33,34.4v541.53c0,15.17,4.21,26.86,11.33,34.4l1.81,1.77L805.55,738.18V731L502.19,427.66Z"/><path class="cls-5" d="M906.66,839.34,805.55,738.18V731L906.69,629.89l2.28,1.3,119.8,68.07c34.22,19.44,34.22,51.26,0,70.71L909,838Z"/><path class="cls-6" d="M909,838,805.55,734.6,500.38,1039.77c11.28,11.94,29.9,13.42,50.89,1.5L909,838"/><path class="cls-7" d="M909,631.18,551.27,427.93c-21-11.92-39.61-10.44-50.89,1.51L805.55,734.6Z"/><path class="cls-8" d="M906.69,835.75l-355.42,202c-19.89,11.29-37.66,10.54-49.06.26h0l-1.83,1.82h0l1.81,1.77h0c11.4,10.28,29.17,11,49.06-.27L909,838Z"/><path class="cls-9" d="M500.38,1036.21c-7.12-7.54-11.33-19.25-11.33-34.4v3.57c0,15.16,4.21,26.86,11.33,34.4l1.83-1.82Z"/><path class="cls-9" d="M1028.77,766.38,906.69,835.75,909,838,1028.77,770c17.11-9.72,25.67-22.53,25.67-35.35h0C1053,746.2,1044.29,757.56,1028.77,766.38Z"/><path class="cls-10" d="M551.27,431.52l477.5,271.31c15.52,8.81,24.23,20.17,25.67,31.77h0c0-12.81-8.55-25.63-25.67-35.35L551.27,427.94c-34.23-19.44-62.22-3.29-62.22,35.91v3.58C489.05,428.23,517,412.08,551.27,431.52Z"/></g></g></svg>