<svg xmlns="http://www.w3.org/2000/svg" xmlns:xlink="http://www.w3.org/1999/xlink" viewBox="0 0 150 44.44"><defs><style>.cls-1{fill:#a6a6a6;}.cls-2{fill:url(#linear-gradient);}.cls-3{fill:url(#linear-gradient-2);}.cls-4{fill:url(#linear-gradient-3);}.cls-5{fill:url(#linear-gradient-4);}.cls-6{opacity:0.2;}.cls-6,.cls-7,.cls-8{isolation:isolate;}.cls-7{opacity:0.12;}.cls-8{fill:#fff;opacity:0.25;}</style><linearGradient id="linear-gradient" x1="24.22" y1="-13129.93" x2="5.57" y2="-13148.57" gradientTransform="matrix(1, 0, 0, -1, 0, -13120.25)" gradientUnits="userSpaceOnUse"><stop offset="0" stop-color="#00a0ff"/><stop offset="0.01" stop-color="#00a1ff"/><stop offset="0.26" stop-color="#00beff"/><stop offset="0.51" stop-color="#00d2ff"/><stop offset="0.76" stop-color="#00dfff"/><stop offset="1" stop-color="#00e3ff"/></linearGradient><linearGradient id="linear-gradient-2" x1="37.59" y1="-13142.47" x2="10.71" y2="-13142.47" gradientTransform="matrix(1, 0, 0, -1, 0, -13120.25)" gradientUnits="userSpaceOnUse"><stop offset="0" stop-color="#ffe000"/><stop offset="0.41" stop-color="#ffbd00"/><stop offset="0.78" stop-color="orange"/><stop offset="1" stop-color="#ff9c00"/></linearGradient><linearGradient id="linear-gradient-3" x1="27.59" y1="-13145.02" x2="2.3" y2="-13170.31" gradientTransform="matrix(1, 0, 0, -1, 0, -13120.25)" gradientUnits="userSpaceOnUse"><stop offset="0" stop-color="#ff3a44"/><stop offset="1" stop-color="#c31162"/></linearGradient><linearGradient id="linear-gradient-4" x1="8.11" y1="-13120.44" x2="19.4" y2="-13131.74" gradientTransform="matrix(1, 0, 0, -1, 0, -13120.25)" gradientUnits="userSpaceOnUse"><stop offset="0" stop-color="#32a071"/><stop offset="0.07" stop-color="#2da771"/><stop offset="0.48" stop-color="#15cf74"/><stop offset="0.8" stop-color="#06e775"/><stop offset="1" stop-color="#00f076"/></linearGradient></defs><g id="Camada_2" data-name="Camada 2"><g id="Camada_1-2" data-name="Camada 1"><path class="cls-1" d="M144.44.89a4.67,4.67,0,0,1,4.67,4.67V38.89a4.68,4.68,0,0,1-4.67,4.67H5.56A4.68,4.68,0,0,1,.89,38.89V5.56A4.67,4.67,0,0,1,5.56.89H144.44m0-.89H5.56A5.57,5.57,0,0,0,0,5.56V38.89a5.57,5.57,0,0,0,5.56,5.55H144.44A5.57,5.57,0,0,0,150,38.89V5.56A5.57,5.57,0,0,0,144.44,0Z"/><path d="M75.71,24.17a4.73,4.73,0,1,0,4.74,4.72A4.66,4.66,0,0,0,75.71,24.17Zm0,7.59a2.87,2.87,0,1,1,2.66-2.87A2.73,2.73,0,0,1,75.71,31.76ZM65.36,24.17a4.73,4.73,0,1,0,4.74,4.72A4.66,4.66,0,0,0,65.36,24.17Zm0,7.59A2.87,2.87,0,1,1,68,28.89,2.74,2.74,0,0,1,65.36,31.76ZM53.05,25.62v2h4.8a4.22,4.22,0,0,1-1.1,2.53,4.88,4.88,0,0,1-3.7,1.46,5.33,5.33,0,0,1,0-10.66,5.07,5.07,0,0,1,3.61,1.43L58.08,21a7,7,0,0,0-5-2,7.34,7.34,0,1,0,0,14.68,6.73,6.73,0,0,0,5.12-2.06,6.62,6.62,0,0,0,1.73-4.69,6.73,6.73,0,0,0-.1-1.25Zm50.34,1.56a4.38,4.38,0,0,0-4-3,4.49,4.49,0,0,0-4.46,4.72,4.62,4.62,0,0,0,4.69,4.73,4.71,4.71,0,0,0,3.94-2.09l-1.61-1.08a2.71,2.71,0,0,1-2.33,1.31,2.41,2.41,0,0,1-2.29-1.43l6.32-2.62ZM97,28.75A2.59,2.59,0,0,1,99.42,26a1.83,1.83,0,0,1,1.75,1Zm-5.14,4.58h2.08V19.44H91.81Zm-3.4-8.11h-.07a3.3,3.3,0,0,0-2.49-1,4.73,4.73,0,0,0,0,9.45,3.24,3.24,0,0,0,2.49-1.07h.07v.68c0,1.8-1,2.77-2.53,2.77a2.62,2.62,0,0,1-2.38-1.68l-1.8.75a4.48,4.48,0,0,0,4.18,2.79c2.44,0,4.5-1.43,4.5-4.92V24.45h-2ZM86,31.76A2.88,2.88,0,0,1,86,26a2.66,2.66,0,0,1,2.52,2.88A2.64,2.64,0,0,1,86,31.76Zm27.09-12.32h-5V33.33h2.07V28.07h2.9a4.32,4.32,0,1,0,0-8.63Zm0,6.7h-3V21.38h3a2.38,2.38,0,1,1,0,4.76Zm12.81-2a3.9,3.9,0,0,0-3.7,2.13l1.85.77A2,2,0,0,1,126,26a2,2,0,0,1,2.18,1.79V28a4.53,4.53,0,0,0-2.16-.54c-2,0-4,1.09-4,3.13a3.21,3.21,0,0,0,3.45,3.06,2.93,2.93,0,0,0,2.65-1.36h.07v1.07h2V28C130.2,25.52,128.36,24.14,126,24.14Zm-.25,7.62c-.68,0-1.62-.34-1.62-1.18,0-1.08,1.18-1.49,2.2-1.49a3.65,3.65,0,0,1,1.89.47A2.52,2.52,0,0,1,125.73,31.76Zm11.76-7.31-2.37,6H135l-2.46-6h-2.24l3.7,8.41-2.11,4.69h2.17l5.7-13.1Zm-18.67,8.88h2.07V19.44h-2.07Z"/><path class="cls-2" d="M11.59,8.38a2.23,2.23,0,0,0-.51,1.56V34.51a2.23,2.23,0,0,0,.51,1.56l.09.08L25.44,22.39v-.33L11.68,8.29Z"/><path class="cls-3" d="M30,27l-4.59-4.59v-.33L30,17.47l.11.06,5.43,3.09c1.55.88,1.55,2.33,0,3.21l-5.43,3.09Z"/><path class="cls-4" d="M30.14,26.92l-4.7-4.7L11.59,36.07a1.81,1.81,0,0,0,2.31.07l16.24-9.22"/><path class="cls-5" d="M30.14,17.53,13.9,8.31a1.8,1.8,0,0,0-2.31.07L25.44,22.22Z"/><path class="cls-6" d="M30,26.81,13.9,36a1.84,1.84,0,0,1-2.22,0h0l-.09.08h0l.09.08h0a1.84,1.84,0,0,0,2.22,0l16.24-9.22Z"/><path class="cls-7" d="M11.59,35.91a2.23,2.23,0,0,1-.51-1.56v.16a2.23,2.23,0,0,0,.51,1.56l.09-.08Z"/><path class="cls-7" d="M35.57,23.67,30,26.81l.11.11,5.43-3.09a2,2,0,0,0,1.17-1.61h0A2.08,2.08,0,0,1,35.57,23.67Z"/><path class="cls-8" d="M13.9,8.47,35.57,20.78a2.08,2.08,0,0,1,1.17,1.44h0a1.94,1.94,0,0,0-1.17-1.6L13.9,8.31c-1.55-.88-2.82-.15-2.82,1.63v.16C11.08,8.32,12.35,7.59,13.9,8.47Z"/><path d="M45.93,14.44V7.78h2a3.36,3.36,0,0,1,2.46.92,3.29,3.29,0,0,1,.92,2.41A3.16,3.16,0,0,1,48,14.44Zm.86-.81H48A2.51,2.51,0,0,0,49.8,13a2.46,2.46,0,0,0,.67-1.85,2.49,2.49,0,0,0-.67-1.85A2.5,2.5,0,0,0,48,8.6H46.79Z"/><path d="M52.55,14.44V7.78h.86v6.66Z"/><path d="M56.82,14.59a2.44,2.44,0,0,1-1.42-.47,2.17,2.17,0,0,1-.91-1.33l.78-.32a1.74,1.74,0,0,0,.57.93,1.46,1.46,0,0,0,1,.37,1.51,1.51,0,0,0,1-.29,1,1,0,0,0,.4-.8,1,1,0,0,0-.4-.86,4,4,0,0,0-1.25-.56,3.43,3.43,0,0,1-1.34-.72,1.49,1.49,0,0,1-.46-1.13,1.65,1.65,0,0,1,.57-1.25,2.1,2.1,0,0,1,1.48-.53,2.18,2.18,0,0,1,1.38.42,2,2,0,0,1,.69.93l-.79.32a1.1,1.1,0,0,0-.41-.58,1.29,1.29,0,0,0-.85-.27,1.32,1.32,0,0,0-.84.27.83.83,0,0,0-.35.69.77.77,0,0,0,.32.63,3.16,3.16,0,0,0,.94.46,6.9,6.9,0,0,1,.83.3,4.38,4.38,0,0,1,.67.4,1.67,1.67,0,0,1,.51.61,2.09,2.09,0,0,1,.17.86,1.85,1.85,0,0,1-.2.86,1.58,1.58,0,0,1-.53.61,2.73,2.73,0,0,1-.71.34A3,3,0,0,1,56.82,14.59Z"/><path d="M61.13,14.44h-.86V7.78h2.27A2.12,2.12,0,0,1,64,8.34a1.94,1.94,0,0,1,0,2.84,2.08,2.08,0,0,1-1.47.56H61.13Zm0-3.52h1.43a1.12,1.12,0,0,0,.87-.36,1.16,1.16,0,0,0,0-1.6,1.12,1.12,0,0,0-.87-.36H61.13Z"/><path d="M71.16,13.58a3.46,3.46,0,0,1-4.89,0,3.41,3.41,0,0,1-1-2.47,3.43,3.43,0,0,1,1-2.47,3.45,3.45,0,0,1,4.88,0,3.41,3.41,0,0,1,1,2.47A3.41,3.41,0,0,1,71.16,13.58ZM66.9,13a2.57,2.57,0,0,0,3.63,0,2.61,2.61,0,0,0,.74-1.91,2.62,2.62,0,0,0-.74-1.91,2.57,2.57,0,0,0-3.63,0,2.62,2.62,0,0,0-.74,1.91A2.61,2.61,0,0,0,66.9,13Z"/><path d="M73.34,14.44V7.78h1L77.63,13h0l0-1.28V7.78h.85v6.66h-.89L74.2,9h0l0,1.28v4.15Z"/><path d="M80,14.44V7.78h.86v6.66Zm.8-7.18h-.74l.48-1.2h.93Z"/><path d="M84,14.44,81.69,7.78h1l1.83,5.41h0l1.9-5.41h1l-2.43,6.66Z"/><path d="M92.22,8.6h-3v2.11h2.74v.8H89.18v2.12h3v.81h-3.9V7.78h3.9Z"/><path d="M93.56,14.44V7.78h.85v5.85H97.3v.81Z"/><path d="M100.62,14.44V7.78h1L104.9,13h0l0-1.28V7.78h.86v6.66h-.9L101.47,9h0l0,1.28v4.15Z"/><path d="M112.73,13.58a3.46,3.46,0,0,1-4.89,0,3.41,3.41,0,0,1-1-2.47,3.43,3.43,0,0,1,1-2.47,3.46,3.46,0,0,1,4.89,0,3.4,3.4,0,0,1,1,2.47A3.37,3.37,0,0,1,112.73,13.58ZM108.48,13a2.56,2.56,0,0,0,3.62,0,2.61,2.61,0,0,0,.74-1.91,2.62,2.62,0,0,0-.74-1.91,2.56,2.56,0,0,0-3.62,0,2.58,2.58,0,0,0-.74,1.91A2.57,2.57,0,0,0,108.48,13Z"/></g></g></svg>