<svg xmlns="http://www.w3.org/2000/svg" viewBox="0 0 25.13 25.25"><defs><style>.cls-1{fill:#fff;fill-rule:evenodd;}</style></defs><g id="Camada_2" data-name="Camada 2"><g id="Camada_1-2" data-name="Camada 1"><path class="cls-1" d="M21.47,3.67A12.52,12.52,0,0,0,1.77,18.76L0,25.25l6.63-1.74a12.59,12.59,0,0,0,6,1.52h0A12.52,12.52,0,0,0,21.47,3.67ZM12.62,22.92h0a10.37,10.37,0,0,1-5.29-1.45l-.38-.23L3,22.28l1-3.84L3.81,18A10.4,10.4,0,0,1,20,5.16a10.28,10.28,0,0,1,3,7.36A10.41,10.41,0,0,1,12.62,22.92Zm5.7-7.79c-.31-.16-1.85-.91-2.14-1s-.49-.15-.7.16-.81,1-1,1.23-.36.23-.68.07A8.24,8.24,0,0,1,11.3,14a9.44,9.44,0,0,1-1.74-2.16c-.18-.32,0-.47.14-.64a9.13,9.13,0,0,0,.78-1.07.59.59,0,0,0,0-.55c-.08-.16-.7-1.69-1-2.32s-.51-.53-.7-.54h-.6a1.17,1.17,0,0,0-.84.39A3.55,3.55,0,0,0,6.26,9.73,6.07,6.07,0,0,0,7.54,13a14,14,0,0,0,5.34,4.72,16.13,16.13,0,0,0,1.78.65,4.28,4.28,0,0,0,2,.13A3.23,3.23,0,0,0,18.74,17a2.57,2.57,0,0,0,.18-1.48C18.84,15.36,18.63,15.29,18.32,15.13Z"/></g></g></svg>